<svg width="26" height="25" viewBox="0 0 26 25" fill="none" xmlns="http://www.w3.org/2000/svg">
<path d="M22.8864 10.5704V13.1954C22.8848 14.6526 22.3051 16.0496 21.2747 17.0801C20.2443 18.1105 18.8473 18.6901 17.39 18.6917H3.97432L6.16728 16.4987L5.05691 15.3884L2.86391 17.5813L2.64724 17.7979L1 19.4452L4.63261 23.532L5.80638 22.4886L3.82725 20.2621H17.39C21.2866 20.2621 24.4568 17.0919 24.4568 13.1954V9L22.8864 10.5704Z" fill="white" stroke="white"/>
<path d="M2.57039 11.3366C2.57204 9.87939 3.15165 8.48233 4.18206 7.45192C5.21248 6.4215 6.60954 5.84189 8.06676 5.84024H21.4825L19.2895 8.03325L20.3999 9.14361L22.5929 6.95066L22.7949 6.74867L24.4568 5.08675L20.8242 1L19.6504 2.04333L21.6296 4.26985H8.06676C4.17023 4.26985 1 7.44008 1 11.3366V15.5466L2.57039 13.9762V11.3366Z" fill="white" stroke="white"/>
</svg>
