<svg width="32" height="32" viewBox="0 0 32 32" fill="none" xmlns="http://www.w3.org/2000/svg">
<path d="M15.7993 0C7.07444 0 0 7.07444 0 15.7993C0 24.5243 7.07444 31.5987 15.7993 31.5987C24.5243 31.5987 31.5987 24.5243 31.5987 15.7993C31.5987 7.07444 24.5243 0 15.7993 0ZM15.7993 28.9184C8.55563 28.9184 2.68025 23.0431 2.68025 15.7993C2.68025 8.55563 8.55563 2.68025 15.7993 2.68025C23.0431 2.68025 28.9184 8.55563 28.9184 15.7993C28.9184 23.0431 23.0431 28.9184 15.7993 28.9184ZM12.6959 10.1567H11.0031C10.8479 10.1567 10.721 10.2837 10.721 10.4389V21.1598C10.721 21.315 10.8479 21.442 11.0031 21.442H12.6959C12.8511 21.442 12.978 21.315 12.978 21.1598V10.4389C12.978 10.2837 12.8511 10.1567 12.6959 10.1567ZM20.5956 10.1567H18.9028C18.7476 10.1567 18.6207 10.2837 18.6207 10.4389V21.1598C18.6207 21.315 18.7476 21.442 18.9028 21.442H20.5956C20.7507 21.442 20.8777 21.315 20.8777 21.1598V10.4389C20.8777 10.2837 20.7507 10.1567 20.5956 10.1567Z" fill="#EF852E"/>
</svg>
