<svg width="22" height="22" viewBox="0 0 22 22" fill="none" xmlns="http://www.w3.org/2000/svg">
<path fill-rule="evenodd" clip-rule="evenodd" d="M1.2393 0.000488281C0.910619 0.000488281 0.595398 0.123773 0.362984 0.34322C0.130569 0.562667 0 0.860301 0 1.17065V19.8932C0 20.2035 0.130569 20.5012 0.362984 20.7206C0.595398 20.94 0.910619 21.0633 1.2393 21.0633C1.56799 21.0633 1.88321 20.94 2.11562 20.7206C2.34804 20.5012 2.47861 20.2035 2.47861 19.8932V1.17065C2.47861 0.860301 2.34804 0.562667 2.11562 0.34322C1.88321 0.123773 1.56799 0.000488281 1.2393 0.000488281Z" fill="white"/>
<path d="M2.23866 12.1634L18.0125 20.8039C19.351 21.5364 21.0661 20.6494 21.0661 19.1727V1.89179C21.0661 0.417391 19.351 -0.47193 18.0125 0.26293L2.23866 8.90338C1.93419 9.06749 1.68111 9.30471 1.50508 9.59098C1.32905 9.87725 1.23633 10.2024 1.23633 10.5334C1.23633 10.8644 1.32905 11.1896 1.50508 11.4758C1.68111 11.7621 1.93419 11.9993 2.23866 12.1634Z" fill="white"/>
</svg>
