<svg width="25" height="23" viewBox="0 0 25 23" fill="none" xmlns="http://www.w3.org/2000/svg">
<path fill-rule="evenodd" clip-rule="evenodd" d="M21.017 1.23759C20.8649 1.08546 20.6586 1 20.4435 1C20.2283 1 20.022 1.08546 19.8699 1.23759C19.7178 1.38971 19.6323 1.59603 19.6323 1.81117C19.6323 2.0263 19.7178 2.23263 19.8699 2.38475L21.7284 4.2416H20.4435C18.3436 4.2416 16.7346 5.18785 15.3752 6.4938C14.288 7.53727 13.3028 8.87077 12.3339 10.1848C12.12 10.4749 11.9078 10.7633 11.6939 11.0468C9.27805 14.2679 6.65481 17.2039 1.81014 17.2039C1.59528 17.2039 1.38922 17.2893 1.23729 17.4412C1.08535 17.5931 1 17.7992 1 18.0141C1 18.2289 1.08535 18.435 1.23729 18.5869C1.38922 18.7388 1.59528 18.8242 1.81014 18.8242C7.49736 18.8242 10.5451 15.279 12.9901 12.019C13.2235 11.7079 13.4487 11.4033 13.6707 11.1035C14.638 9.79433 15.5178 8.6018 16.4981 7.66203C17.6711 6.53593 18.8977 5.86189 20.4435 5.86189H21.7284L19.8699 7.71874C19.7178 7.87086 19.6323 8.07719 19.6323 8.29232C19.6323 8.50746 19.7178 8.71378 19.8699 8.8659C20.022 9.01803 20.2283 9.10349 20.4435 9.10349C20.6586 9.10349 20.8649 9.01803 21.017 8.8659L24.2576 5.62533C24.3331 5.55007 24.3929 5.46067 24.4338 5.36225C24.4746 5.26382 24.4956 5.15831 24.4956 5.05174C24.4956 4.94518 24.4746 4.83967 24.4338 4.74124C24.3929 4.64282 24.3331 4.55342 24.2576 4.47816L21.017 1.23759ZM1.81014 4.2416C6.43283 4.2416 9.01154 6.21997 11.2394 8.84646L11.0304 9.13163C10.7708 9.48403 10.5094 9.8351 10.2462 10.1848C8.10904 7.59236 5.90299 5.86189 1.81014 5.86189C1.59528 5.86189 1.38922 5.77653 1.23729 5.6246C1.08535 5.47267 1 5.26661 1 5.05174C1 4.83688 1.08535 4.63082 1.23729 4.47889C1.38922 4.32695 1.59528 4.2416 1.81014 4.2416ZM15.3752 16.572C14.5651 15.7959 14.0483 15.1688 13.3175 14.1999C13.6237 13.8143 13.9154 13.4319 14.1957 13.0576L14.3415 12.8632C15.142 13.939 15.6685 14.6082 16.4981 15.4054C17.6711 16.5299 18.8977 17.2039 20.4435 17.2039H21.7284L19.8699 15.3471C19.7178 15.1949 19.6323 14.9886 19.6323 14.7735C19.6323 14.5583 19.7178 14.352 19.8699 14.1999C20.022 14.0478 20.2283 13.9623 20.4435 13.9623C20.6586 13.9623 20.8649 14.0478 21.017 14.1999L24.2576 17.4405C24.3331 17.5157 24.3929 17.6051 24.4338 17.7036C24.4746 17.802 24.4956 17.9075 24.4956 18.0141C24.4956 18.1206 24.4746 18.2261 24.4338 18.3246C24.3929 18.423 24.3331 18.5124 24.2576 18.5876L21.017 21.8282C20.8649 21.9803 20.6586 22.0658 20.4435 22.0658C20.2283 22.0658 20.022 21.9803 19.8699 21.8282C19.7178 21.6761 19.6323 21.4698 19.6323 21.2546C19.6323 21.0395 19.7178 20.8332 19.8699 20.681L21.7284 18.8242H20.4435C18.3436 18.8242 16.7346 17.8779 15.3752 16.572Z" fill="white" stroke="white"/>
</svg>
